{
    "asset" : {
        "generator" : "Khronos glTF Blender I/O v1.0.5",
        "version" : "2.0"
    },
    "scene" : 0,
    "scenes" : [
        {
            "name" : "Scene",
            "nodes" : [
                0,
                1,
                8
            ]
        }
    ],
    "nodes" : [
        {
            "name" : "Light",
            "rotation" : [
                0.16907575726509094,
                0.7558803558349609,
                -0.27217137813568115,
                0.570947527885437
            ],
            "translation" : [
                4.076245307922363,
                5.903861999511719,
                -1.0054539442062378
            ]
        },
        {
            "name" : "Camera",
            "rotation" : [
                0.483536034822464,
                0.33687159419059753,
                -0.20870360732078552,
                0.7804827094078064
            ],
            "translation" : [
                7.358891487121582,
                4.958309173583984,
                6.925790786743164
            ]
        },
        {
            "mesh" : 0,
            "name" : "Object_3",
            "translation" : [
                1.0058239698410034,
                0.06305621564388275,
                0
            ]
        },
        {
            "mesh" : 1,
            "name" : "Object_3.001",
            "translation" : [
                -1.0150516033172607,
                0.06305621564388275,
                0
            ]
        },
        {
            "mesh" : 2,
            "name" : "Object_3.002",
            "translation" : [
                0.0461387112736702,
                0.05382847785949707,
                0
            ]
        },
        {
            "mesh" : 3,
            "name" : "Object_3.003",
            "translation" : [
                0.0461387112736702,
                0.05382847785949707,
                0
            ]
        },
        {
            "children" : [
                2,
                3,
                4,
                5
            ],
            "name" : "cuerpo base hombre.OBJ.cleaner.materialmerger.gles"
        },
        {
            "children" : [
                6
            ],
            "name" : "RootNode (model correction matrix)"
        },
        {
            "children" : [
                7
            ],
            "name" : "RootNode (gltf orientation matrix)"
        }
    ],
    "materials" : [
        {
            "doubleSided" : true,
            "emissiveFactor" : [
                0,
                0,
                0
            ],
            "name" : "material_0",
            "pbrMetallicRoughness" : {
                "baseColorFactor" : [
                    1,
                    1,
                    1,
                    1
                ],
                "metallicFactor" : 0,
                "roughnessFactor" : 0.6000000238418579
            }
        }
    ],
    "meshes" : [
        {
            "name" : "Mesh_0",
            "primitives" : [
                {
                    "attributes" : {
                        "POSITION" : 0,
                        "NORMAL" : 1
                    },
                    "indices" : 2,
                    "material" : 0
                }
            ]
        },
        {
            "name" : "Mesh_0.001",
            "primitives" : [
                {
                    "attributes" : {
                        "POSITION" : 3,
                        "NORMAL" : 4
                    },
                    "indices" : 5,
                    "material" : 0
                }
            ]
        },
        {
            "name" : "Mesh_0.002",
            "primitives" : [
                {
                    "attributes" : {
                        "POSITION" : 6,
                        "NORMAL" : 7
                    },
                    "indices" : 8,
                    "material" : 0
                }
            ]
        },
        {
            "name" : "Mesh_0.003",
            "primitives" : [
                {
                    "attributes" : {
                        "POSITION" : 9,
                        "NORMAL" : 10
                    },
                    "indices" : 11,
                    "material" : 0
                }
            ]
        }
    ],
    "accessors" : [
        {
            "bufferView" : 0,
            "componentType" : 5126,
            "count" : 8023,
            "max" : [
                1.9846864938735962,
                1.9324169158935547,
                0.4690839946269989
            ],
            "min" : [
                -1.9846856594085693,
                -2.9657764434814453,
                -0.5708436965942383
            ],
            "type" : "VEC3"
        },
        {
            "bufferView" : 1,
            "componentType" : 5126,
            "count" : 8023,
            "type" : "VEC3"
        },
        {
            "bufferView" : 2,
            "componentType" : 5123,
            "count" : 46869,
            "type" : "SCALAR"
        },
        {
            "bufferView" : 3,
            "componentType" : 5126,
            "count" : 1770,
            "max" : [
                0.6282219886779785,
                2.9110937118530273,
                0.4281834065914154
            ],
            "min" : [
                -0.6282961964607239,
                1.8820189237594604,
                -0.4628795087337494
            ],
            "type" : "VEC3"
        },
        {
            "bufferView" : 4,
            "componentType" : 5126,
            "count" : 1770,
            "type" : "VEC3"
        },
        {
            "bufferView" : 5,
            "componentType" : 5123,
            "count" : 9480,
            "type" : "SCALAR"
        },
        {
            "bufferView" : 6,
            "componentType" : 5126,
            "count" : 726,
            "max" : [
                0.3854916989803314,
                1.0871624946594238,
                0.41876932978630066
            ],
            "min" : [
                -0.40691864490509033,
                0.10446985065937042,
                -0.5671644806861877
            ],
            "type" : "VEC3"
        },
        {
            "bufferView" : 7,
            "componentType" : 5126,
            "count" : 726,
            "type" : "VEC3"
        },
        {
            "bufferView" : 8,
            "componentType" : 5123,
            "count" : 3861,
            "type" : "SCALAR"
        },
        {
            "bufferView" : 9,
            "componentType" : 5126,
            "count" : 615,
            "max" : [
                0.5778002738952637,
                1.779616117477417,
                0.4063676595687866
            ],
            "min" : [
                -0.590558648109436,
                1.2102187871932983,
                -0.5685634016990662
            ],
            "type" : "VEC3"
        },
        {
            "bufferView" : 10,
            "componentType" : 5126,
            "count" : 615,
            "type" : "VEC3"
        },
        {
            "bufferView" : 11,
            "componentType" : 5123,
            "count" : 3162,
            "type" : "SCALAR"
        }
    ],
    "bufferViews" : [
        {
            "buffer" : 0,
            "byteLength" : 96276,
            "byteOffset" : 0
        },
        {
            "buffer" : 0,
            "byteLength" : 96276,
            "byteOffset" : 96276
        },
        {
            "buffer" : 0,
            "byteLength" : 93738,
            "byteOffset" : 192552
        },
        {
            "buffer" : 0,
            "byteLength" : 21240,
            "byteOffset" : 286292
        },
        {
            "buffer" : 0,
            "byteLength" : 21240,
            "byteOffset" : 307532
        },
        {
            "buffer" : 0,
            "byteLength" : 18960,
            "byteOffset" : 328772
        },
        {
            "buffer" : 0,
            "byteLength" : 8712,
            "byteOffset" : 347732
        },
        {
            "buffer" : 0,
            "byteLength" : 8712,
            "byteOffset" : 356444
        },
        {
            "buffer" : 0,
            "byteLength" : 7722,
            "byteOffset" : 365156
        },
        {
            "buffer" : 0,
            "byteLength" : 7380,
            "byteOffset" : 372880
        },
        {
            "buffer" : 0,
            "byteLength" : 7380,
            "byteOffset" : 380260
        },
        {
            "buffer" : 0,
            "byteLength" : 6324,
            "byteOffset" : 387640
        }
    ],
    "buffers" : [
        {
            "byteLength" : 393964,
            "uri" : "data:application/octet-stream;base64,"
        }
    ]
}
