{
  "accessors": [
    {
      "bufferView": 1,
      "componentType": 5126,
      "count": 12056,
      "max": [
        1.9017452001571655,
        0.44162008166313171,
        2.6211361885070801
      ],
      "min": [
        -1.9012385606765747,
        -0.46672520041465759,
        -2.4494953155517578
      ],
      "type": "VEC3"
    },
    {
      "bufferView": 1,
      "byteOffset": 144672,
      "componentType": 5126,
      "count": 12056,
      "max": [
        1,
        0.9999845027923584,
        0.99964141845703125
      ],
      "min": [
        -0.99991840124130249,
        -0.99996381998062134,
        -0.99996769428253174
      ],
      "type": "VEC3"
    },
    {
      "bufferView": 0,
      "componentType": 5125,
      "count": 70407,
      "max": [
        12055
      ],
      "min": [
        0
      ],
      "type": "SCALAR"
    }
  ],
  "asset": {
    "extras": {
      "author": "Nicolas.nikoi (https://sketchfab.com/naiken.nikoi)",
      "license": "CC-BY-4.0 (http://creativecommons.org/licenses/by/4.0/)",
      "source": "https://sketchfab.com/models/5ebe004ec41c4e578557bcbbfd1bce5c",
      "title": "Body Base Woman low poly"
    },
    "generator": "Sketchfab-3.29.3",
    "version": "2.0"
  },
  "bufferViews": [
    {
      "buffer": 0,
      "byteLength": 281628,
      "byteOffset": 0,
      "name": "floatBufferViews",
      "target": 34963
    },
    {
      "buffer": 0,
      "byteLength": 289344,
      "byteOffset": 281628,
      "byteStride": 12,
      "name": "floatBufferViews",
      "target": 34962
    }
  ],
  "buffers": [
    {
      "byteLength": 570972,
      "uri": "scene.bin"
    }
  ],
  "extensionsRequired": [
    "KHR_materials_pbrSpecularGlossiness"
  ],
  "extensionsUsed": [
    "KHR_materials_pbrSpecularGlossiness"
  ],
  "materials": [
    {
      "doubleSided": true,
      "emissiveFactor": [
        0,
        0,
        0
      ],
      "extensions": {
        "KHR_materials_pbrSpecularGlossiness": {
          "diffuseFactor": [
            0.93464176830000001,
            0.93464176830000001,
            0.93464176830000001,
            1
          ],
          "glossinessFactor": 0.55926067070000007,
          "specularFactor": [
            0.0443978659,
            0.0443978659,
            0.0443978659
          ]
        }
      },
      "name": "material_0"
    }
  ],
  "meshes": [
    {
      "primitives": [
        {
          "attributes": {
            "NORMAL": 1,
            "POSITION": 0
          },
          "indices": 2,
          "material": 0,
          "mode": 4
        }
      ]
    }
  ],
  "nodes": [
    {
      "children": [
        1
      ],
      "name": "RootNode (gltf orientation matrix)",
      "rotation": [
        -0.70710678118654746,
        -0,
        -0,
        0.70710678118654757
      ]
    },
    {
      "children": [
        2
      ],
      "name": "RootNode (model correction matrix)"
    },
    {
      "children": [
        3
      ],
      "name": "cuerpo base mujer.OBJ.cleaner.materialmerger.gles"
    },
    {
      "mesh": 0,
      "name": ""
    }
  ],
  "scene": 0,
  "scenes": [
    {
      "name": "OSG_Scene",
      "nodes": [
        0
      ]
    }
  ]
}

