{
  "accessors": [
    {
      "bufferView": 2,
      "componentType": 5126,
      "count": 30998,
      "max": [
        57.065948486328125,
        73.38555908203125,
        13.979170799255371
      ],
      "min": [
        -57.065948486328125,
        -73.002059936523438,
        -13.979170799255371
      ],
      "type": "VEC3"
    },
    {
      "bufferView": 2,
      "byteOffset": 371976,
      "componentType": 5126,
      "count": 30998,
      "max": [
        0.99986118078231812,
        0.99987751245498657,
        0.99996370077133179
      ],
      "min": [
        -0.99986118078231812,
        -0.99995821714401245,
        -0.99997961521148682
      ],
      "type": "VEC3"
    },
    {
      "bufferView": 3,
      "componentType": 5126,
      "count": 30998,
      "max": [
        1,
        0.99992746114730835,
        0.99998933076858521,
        1
      ],
      "min": [
        -0.99998784065246582,
        -0.99997729063034058,
        -0.99998140335083008,
        -1
      ],
      "type": "VEC4"
    },
    {
      "bufferView": 1,
      "componentType": 5126,
      "count": 30998,
      "max": [
        0.99778968095779419,
        0.99817585945129395
      ],
      "min": [
        0.011205106973648071,
        0.00097119808197021484
      ],
      "type": "VEC2"
    },
    {
      "bufferView": 0,
      "componentType": 5125,
      "count": 172788,
      "max": [
        30997
      ],
      "min": [
        0
      ],
      "type": "SCALAR"
    },
    {
      "bufferView": 2,
      "byteOffset": 743952,
      "componentType": 5126,
      "count": 462,
      "max": [
        4.0852460861206055,
        64.535964965820312,
        10.838647842407227
      ],
      "min": [
        -4.0852270126342773,
        61.839042663574219,
        9.4458866119384766
      ],
      "type": "VEC3"
    },
    {
      "bufferView": 2,
      "byteOffset": 749496,
      "componentType": 5126,
      "count": 462,
      "max": [
        0.99898213148117065,
        0.99691671133041382,
        0.99944156408309937
      ],
      "min": [
        -0.9989820122718811,
        -0.99691867828369141,
        0.04510415717959404
      ],
      "type": "VEC3"
    },
    {
      "bufferView": 3,
      "byteOffset": 495968,
      "componentType": 5126,
      "count": 462,
      "max": [
        0.99995023012161255,
        0.57707613706588745,
        0.99788576364517212,
        1
      ],
      "min": [
        -0.99983954429626465,
        -0.57532113790512085,
        -0.99705809354782104,
        1
      ],
      "type": "VEC4"
    },
    {
      "bufferView": 1,
      "byteOffset": 247984,
      "componentType": 5126,
      "count": 462,
      "max": [
        0.64756095409393311,
        0.75640034675598145
      ],
      "min": [
        0.22006411850452423,
        0.10447949171066284
      ],
      "type": "VEC2"
    },
    {
      "bufferView": 0,
      "byteOffset": 691152,
      "componentType": 5125,
      "count": 2280,
      "max": [
        461
      ],
      "min": [
        0
      ],
      "type": "SCALAR"
    }
  ],
  "asset": {
    "extras": {
      "author": "sapenton8821 (https://sketchfab.com/sapenton8821)",
      "license": "CC-BY-4.0 (http://creativecommons.org/licenses/by/4.0/)",
      "source": "https://sketchfab.com/models/228ad362a3ca4177beeb05fd19d49e40",
      "title": "Character2 Textures Progress 1"
    },
    "generator": "Sketchfab-3.19.4",
    "version": "2.0"
  },
  "bufferViews": [
    {
      "buffer": 0,
      "byteLength": 700272,
      "byteOffset": 0,
      "name": "floatBufferViews",
      "target": 34963
    },
    {
      "buffer": 0,
      "byteLength": 251680,
      "byteOffset": 700272,
      "byteStride": 8,
      "name": "floatBufferViews",
      "target": 34962
    },
    {
      "buffer": 0,
      "byteLength": 755040,
      "byteOffset": 951952,
      "byteStride": 12,
      "name": "floatBufferViews",
      "target": 34962
    },
    {
      "buffer": 0,
      "byteLength": 503360,
      "byteOffset": 1706992,
      "byteStride": 16,
      "name": "floatBufferViews",
      "target": 34962
    }
  ],
  "buffers": [
    {
      "byteLength": 2210352,
      "uri": "scene.bin"
    }
  ],
  "images": [
    {
      "uri": "textures/Eye_MAT_metallicRoughness.png"
    },
    {
      "uri": "textures/Eye_MAT_normal.png"
    },
    {
      "uri": "textures/Eye_MAT_baseColor.jpeg"
    },
    {
      "uri": "textures/Skin_MAT_baseColor.png"
    },
    {
      "uri": "textures/Skin_MAT_metallicRoughness.png"
    },
    {
      "uri": "textures/Skin_MAT_normal.png"
    }
  ],
  "materials": [
    {
      "alphaMode": "BLEND",
      "doubleSided": true,
      "emissiveFactor": [
        0,
        0,
        0
      ],
      "name": "Skin_MAT",
      "normalTexture": {
        "index": 5,
        "scale": 1,
        "texCoord": 0
      },
      "occlusionTexture": {
        "index": 4,
        "strength": 1,
        "texCoord": 0
      },
      "pbrMetallicRoughness": {
        "baseColorFactor": [
          1,
          1,
          1,
          1
        ],
        "baseColorTexture": {
          "index": 3,
          "texCoord": 0
        },
        "metallicFactor": 1,
        "metallicRoughnessTexture": {
          "index": 4,
          "texCoord": 0
        },
        "roughnessFactor": 1
      }
    },
    {
      "doubleSided": true,
      "emissiveFactor": [
        0,
        0,
        0
      ],
      "name": "Eye_MAT",
      "normalTexture": {
        "index": 1,
        "scale": 1,
        "texCoord": 0
      },
      "occlusionTexture": {
        "index": 0,
        "strength": 1,
        "texCoord": 0
      },
      "pbrMetallicRoughness": {
        "baseColorFactor": [
          1,
          1,
          1,
          1
        ],
        "baseColorTexture": {
          "index": 2,
          "texCoord": 0
        },
        "metallicFactor": 1,
        "metallicRoughnessTexture": {
          "index": 0,
          "texCoord": 0
        },
        "roughnessFactor": 0.31269054880000002
      }
    }
  ],
  "meshes": [
    {
      "name": "Oskar_LoRes_Skin_MAT_0",
      "primitives": [
        {
          "attributes": {
            "NORMAL": 1,
            "POSITION": 0,
            "TANGENT": 2,
            "TEXCOORD_0": 3
          },
          "indices": 4,
          "material": 0,
          "mode": 4
        }
      ]
    },
    {
      "name": "Oskar_LoRes_Eye_MAT_0",
      "primitives": [
        {
          "attributes": {
            "NORMAL": 6,
            "POSITION": 5,
            "TANGENT": 7,
            "TEXCOORD_0": 8
          },
          "indices": 9,
          "material": 1,
          "mode": 4
        }
      ]
    }
  ],
  "nodes": [
    {
      "children": [
        1
      ],
      "name": "RootNode (gltf orientation matrix)",
      "rotation": [
        -0.70710678118654746,
        -0,
        -0,
        0.70710678118654757
      ]
    },
    {
      "children": [
        2
      ],
      "name": "RootNode (model correction matrix)"
    },
    {
      "children": [
        3
      ],
      "matrix": [
        1,
        0,
        0,
        0,
        0,
        0,
        1,
        0,
        0,
        -1,
        0,
        0,
        0,
        0,
        0,
        1
      ],
      "name": "OSKARloRes.fbx"
    },
    {
      "children": [
        4
      ],
      "name": "RootNode"
    },
    {
      "children": [
        5,
        6
      ],
      "name": "Oskar_LoRes"
    },
    {
      "mesh": 0,
      "name": "Oskar_LoRes_Skin_MAT_0"
    },
    {
      "mesh": 1,
      "name": "Oskar_LoRes_Eye_MAT_0"
    }
  ],
  "samplers": [
    {
      "magFilter": 9729,
      "minFilter": 9987,
      "wrapS": 10497,
      "wrapT": 10497
    }
  ],
  "scene": 0,
  "scenes": [
    {
      "name": "OSG_Scene",
      "nodes": [
        0
      ]
    }
  ],
  "textures": [
    {
      "sampler": 0,
      "source": 0
    },
    {
      "sampler": 0,
      "source": 1
    },
    {
      "sampler": 0,
      "source": 2
    },
    {
      "sampler": 0,
      "source": 3
    },
    {
      "sampler": 0,
      "source": 4
    },
    {
      "sampler": 0,
      "source": 5
    }
  ]
}

