{
  "accessors": [
    {
      "bufferView": 2,
      "componentType": 5126,
      "count": 24775,
      "max": [
        80.966865539550781,
        186.59672546386719,
        17.634143829345703
      ],
      "min": [
        -80.966865539550781,
        -4.796417236328125,
        -16.922920227050781
      ],
      "type": "VEC3"
    },
    {
      "bufferView": 2,
      "byteOffset": 297300,
      "componentType": 5126,
      "count": 24775,
      "max": [
        0.99999165534973145,
        0.99999994039535522,
        0.99999892711639404
      ],
      "min": [
        -0.9999922513961792,
        -1,
        -0.99998486042022705
      ],
      "type": "VEC3"
    },
    {
      "bufferView": 3,
      "componentType": 5126,
      "count": 24775,
      "max": [
        1,
        0.9998619556427002,
        0.99999839067459106,
        1
      ],
      "min": [
        -1,
        -0.99973291158676147,
        -0.99998241662979126,
        -1
      ],
      "type": "VEC4"
    },
    {
      "bufferView": 1,
      "componentType": 5126,
      "count": 24775,
      "max": [
        0.9991685152053833,
        0.99639540910720825
      ],
      "min": [
        0.0012874007225036621,
        0.0012459158897399902
      ],
      "type": "VEC2"
    },
    {
      "bufferView": 0,
      "componentType": 5125,
      "count": 138168,
      "max": [
        24774
      ],
      "min": [
        0
      ],
      "type": "SCALAR"
    },
    {
      "bufferView": 2,
      "byteOffset": 594600,
      "componentType": 5126,
      "count": 9364,
      "max": [
        5.769223690032959,
        176.44865417480469,
        13.37801456451416
      ],
      "min": [
        -5.7684206962585449,
        172.55264282226562,
        9.0538349151611328
      ],
      "type": "VEC3"
    },
    {
      "bufferView": 2,
      "byteOffset": 706968,
      "componentType": 5126,
      "count": 9364,
      "max": [
        1,
        1,
        1
      ],
      "min": [
        -1,
        -1,
        -1
      ],
      "type": "VEC3"
    },
    {
      "bufferView": 3,
      "byteOffset": 396400,
      "componentType": 5126,
      "count": 9364,
      "max": [
        1,
        0.46317756175994873,
        0.99962407350540161,
        1
      ],
      "min": [
        -1,
        -0.46312552690505981,
        -0.9996306300163269,
        -1
      ],
      "type": "VEC4"
    },
    {
      "bufferView": 1,
      "byteOffset": 198200,
      "componentType": 5126,
      "count": 9364,
      "max": [
        0.54037690162658691,
        0.99548202753067017
      ],
      "min": [
        0.00024125073105096817,
        0.077809333801269531
      ],
      "type": "VEC2"
    },
    {
      "bufferView": 0,
      "byteOffset": 552672,
      "componentType": 5125,
      "count": 55440,
      "max": [
        9363
      ],
      "min": [
        0
      ],
      "type": "SCALAR"
    },
    {
      "bufferView": 2,
      "byteOffset": 819336,
      "componentType": 5126,
      "count": 9364,
      "max": [
        5.7270073890686035,
        176.40643310546875,
        13.331157684326172
      ],
      "min": [
        -5.7262039184570312,
        172.59487915039062,
        9.1007204055786133
      ],
      "type": "VEC3"
    },
    {
      "bufferView": 2,
      "byteOffset": 931704,
      "componentType": 5126,
      "count": 9364,
      "max": [
        1,
        1,
        1
      ],
      "min": [
        -1,
        -1,
        -1
      ],
      "type": "VEC3"
    },
    {
      "bufferView": 3,
      "byteOffset": 546224,
      "componentType": 5126,
      "count": 9364,
      "max": [
        1,
        0.46321475505828857,
        0.99962681531906128,
        1
      ],
      "min": [
        -1,
        -0.46319630742073059,
        -0.99962621927261353,
        -1
      ],
      "type": "VEC4"
    },
    {
      "bufferView": 1,
      "byteOffset": 273112,
      "componentType": 5126,
      "count": 9364,
      "max": [
        0.40766626596450806,
        0.99833649396896362
      ],
      "min": [
        0.072703450918197632,
        0.076871573925018311
      ],
      "type": "VEC2"
    },
    {
      "bufferView": 0,
      "byteOffset": 774432,
      "componentType": 5125,
      "count": 55440,
      "max": [
        9363
      ],
      "min": [
        0
      ],
      "type": "SCALAR"
    }
  ],
  "asset": {
    "extras": {
      "author": "sapenton8821 (https://sketchfab.com/sapenton8821)",
      "license": "CC-BY-4.0 (http://creativecommons.org/licenses/by/4.0/)",
      "source": "https://sketchfab.com/models/bd3956cf1ba345e88dca340496140366",
      "title": "Female Anatomy Study Progress 2"
    },
    "generator": "Sketchfab-3.19.6",
    "version": "2.0"
  },
  "bufferViews": [
    {
      "buffer": 0,
      "byteLength": 996192,
      "byteOffset": 0,
      "name": "floatBufferViews",
      "target": 34963
    },
    {
      "buffer": 0,
      "byteLength": 348024,
      "byteOffset": 996192,
      "byteStride": 8,
      "name": "floatBufferViews",
      "target": 34962
    },
    {
      "buffer": 0,
      "byteLength": 1044072,
      "byteOffset": 1344216,
      "byteStride": 12,
      "name": "floatBufferViews",
      "target": 34962
    },
    {
      "buffer": 0,
      "byteLength": 696048,
      "byteOffset": 2388288,
      "byteStride": 16,
      "name": "floatBufferViews",
      "target": 34962
    }
  ],
  "buffers": [
    {
      "byteLength": 3084336,
      "uri": "scene.bin"
    }
  ],
  "images": [
    {
      "uri": "textures/Eye_Flesh_normal.png"
    },
    {
      "uri": "textures/Eye_Flesh_metallicRoughness.png"
    },
    {
      "uri": "textures/Eye_Flesh_baseColor.png"
    },
    {
      "uri": "textures/Cornea_normal.png"
    },
    {
      "uri": "textures/Cornea_metallicRoughness.png"
    },
    {
      "uri": "textures/Cornea_baseColor.png"
    },
    {
      "uri": "textures/Skin_Hair_normal.png"
    },
    {
      "uri": "textures/Skin_Hair_metallicRoughness.png"
    },
    {
      "uri": "textures/Skin_Hair_baseColor.png"
    }
  ],
  "materials": [
    {
      "doubleSided": true,
      "emissiveFactor": [
        0,
        0,
        0
      ],
      "name": "Skin_Hair",
      "normalTexture": {
        "index": 6,
        "scale": 1,
        "texCoord": 0
      },
      "pbrMetallicRoughness": {
        "baseColorFactor": [
          1,
          1,
          1,
          1
        ],
        "baseColorTexture": {
          "index": 8,
          "texCoord": 0
        },
        "metallicFactor": 1,
        "metallicRoughnessTexture": {
          "index": 7,
          "texCoord": 0
        },
        "roughnessFactor": 1
      }
    },
    {
      "doubleSided": true,
      "emissiveFactor": [
        0,
        0,
        0
      ],
      "name": "Cornea",
      "normalTexture": {
        "index": 3,
        "scale": 1,
        "texCoord": 0
      },
      "pbrMetallicRoughness": {
        "baseColorFactor": [
          1,
          1,
          1,
          1
        ],
        "baseColorTexture": {
          "index": 5,
          "texCoord": 0
        },
        "metallicFactor": 1,
        "metallicRoughnessTexture": {
          "index": 4,
          "texCoord": 0
        },
        "roughnessFactor": 1
      }
    },
    {
      "doubleSided": true,
      "emissiveFactor": [
        0,
        0,
        0
      ],
      "name": "Eye_Flesh",
      "normalTexture": {
        "index": 0,
        "scale": 1,
        "texCoord": 0
      },
      "pbrMetallicRoughness": {
        "baseColorFactor": [
          1,
          1,
          1,
          1
        ],
        "baseColorTexture": {
          "index": 2,
          "texCoord": 0
        },
        "metallicFactor": 1,
        "metallicRoughnessTexture": {
          "index": 1,
          "texCoord": 0
        },
        "roughnessFactor": 1
      }
    }
  ],
  "meshes": [
    {
      "name": "LoRes_Female_Mesh_Skin_Hair_0",
      "primitives": [
        {
          "attributes": {
            "NORMAL": 1,
            "POSITION": 0,
            "TANGENT": 2,
            "TEXCOORD_0": 3
          },
          "indices": 4,
          "material": 0,
          "mode": 4
        }
      ]
    },
    {
      "name": "LoRes_Female_Mesh_Cornea_0",
      "primitives": [
        {
          "attributes": {
            "NORMAL": 6,
            "POSITION": 5,
            "TANGENT": 7,
            "TEXCOORD_0": 8
          },
          "indices": 9,
          "material": 1,
          "mode": 4
        }
      ]
    },
    {
      "name": "LoRes_Female_Mesh_Eye_Flesh_0",
      "primitives": [
        {
          "attributes": {
            "NORMAL": 11,
            "POSITION": 10,
            "TANGENT": 12,
            "TEXCOORD_0": 13
          },
          "indices": 14,
          "material": 2,
          "mode": 4
        }
      ]
    }
  ],
  "nodes": [
    {
      "children": [
        1
      ],
      "name": "RootNode (gltf orientation matrix)",
      "rotation": [
        -0.70710678118654746,
        -0,
        -0,
        0.70710678118654757
      ]
    },
    {
      "children": [
        2
      ],
      "name": "RootNode (model correction matrix)"
    },
    {
      "children": [
        3
      ],
      "matrix": [
        1,
        0,
        0,
        0,
        0,
        0,
        1,
        0,
        0,
        -1,
        0,
        0,
        0,
        0,
        0,
        1
      ],
      "name": "Char_Fem.fbx"
    },
    {
      "children": [
        4
      ],
      "name": "RootNode"
    },
    {
      "children": [
        5,
        6,
        7
      ],
      "name": "LoRes_Female_Mesh"
    },
    {
      "mesh": 0,
      "name": "LoRes_Female_Mesh_Skin_Hair_0"
    },
    {
      "mesh": 1,
      "name": "LoRes_Female_Mesh_Cornea_0"
    },
    {
      "mesh": 2,
      "name": "LoRes_Female_Mesh_Eye_Flesh_0"
    }
  ],
  "samplers": [
    {
      "magFilter": 9729,
      "minFilter": 9987,
      "wrapS": 10497,
      "wrapT": 10497
    }
  ],
  "scene": 0,
  "scenes": [
    {
      "name": "OSG_Scene",
      "nodes": [
        0
      ]
    }
  ],
  "textures": [
    {
      "sampler": 0,
      "source": 0
    },
    {
      "sampler": 0,
      "source": 1
    },
    {
      "sampler": 0,
      "source": 2
    },
    {
      "sampler": 0,
      "source": 3
    },
    {
      "sampler": 0,
      "source": 4
    },
    {
      "sampler": 0,
      "source": 5
    },
    {
      "sampler": 0,
      "source": 6
    },
    {
      "sampler": 0,
      "source": 7
    },
    {
      "sampler": 0,
      "source": 8
    }
  ]
}

